<?xml version="1.0" encoding="utf-8"?>
<svg xmlns="http://www.w3.org/2000/svg" viewBox="0 0 115 115"><circle fill="#BB9A37" cx="57.5" cy="57.5" r="57.5"></circle><g fill="#FFF"><g class="convenience-english"><path d="M9.3,12.2 L7.3,12.2 L7.3,7.1 L2,7.1 L2,12.2 L0,12.2 L0,0.6 L2,0.6 L2,5.4 L7.3,5.4 L7.3,0.6 L9.3,0.6 L9.3,12.2 Z M14.5,12.3 C13.3,12.3 12.3,12 11.5,11.2 C10.7,10.4 10.4,9.4 10.4,8.1 L10.4,7.9 C10.4,7 10.6,6.3 10.9,5.9 C11.2,4.9 11.7,4.4 12.3,4 C12.9,3.6 13.5,3.4 14.3,3.4 C15.5,3.4 16.4,3.8 17,4.6 C17.7,5.3 18,6.4 18,7.7 L18,8.5 L12.3,8.5 C12.4,9.2 12.6,9.8 13,10.2 C13.5,10.6 14,10.8 14.6,10.8 C15.5,10.8 16.3,10.4 16.8,9.7 L17.9,10.7 C17.5,11.2 17,11.6 16.5,11.9 C15.9,12.2 15.2,12.3 14.5,12.3 Z M14.3,5 C13.7,5 13.3,5.2 13,5.5 C12.7,5.9 12.4,6.4 12.4,7.1 L16.1,7.1 L16.1,7 C16,6.3 15.9,5.8 15.6,5.5 C15.2,5.2 14.8,5 14,5 Z M20.8,12.2 L18.9,12.2 L18.8,0 L20.8,0 L20.8,12.2 Z M24.2,12.2 L22.2,12.2 L22.2,0 L24.2,0 L24.2,12.2 Z M25.1,7.8 C25.1,7 25.3,6.2 25.6,5.5 C25.9,4.9 26.4,4.3 27,4 C27.6,3.6 28.3,3.4 29.1,3.4 C30.3,3.4 31.3,3.8 32,4.6 C32.7,5.3 33.1,6.3 33.2,7.5 L33.2,8 C33.2,8.8 33,9.6 32.7,10.3 C32.4,10.9 31.9,11.4 31.3,11.8 C30.7,12.2 30,12.3 29.1,12.3 C27.9,12.3 26.9,11.9 26.2,11.1 C25.5,10.3 25.1,9.2 25.1,7.9 L25.1,7.8 Z M27.1,8 C27.1,8.9 27.2,9.6 27.6,10.1 C28,10.6 28.5,10.9 29.1,10.8 C29.8,10.8 30.3,10.6 30.7,10 C31.1,9.5 31.2,8.8 31.2,7.8 C31.2,6.9 31.1,6.3 30.7,5.8 C30.3,5.2 29.8,5 29.1,5 C28.5,5 28,5.2 27.6,5.7 C27.2,6.2 27.1,7 27.1,8 Z"></path></g><g class="convenience-arabic"><path d="M32.1,9 C32.1,10.2 31.4,10.8 30.1,10.8 C29.5,10.8 29,10.7 28.5,10.6 C28.1,10.4 27.6,10.1 27.3,9.8 C27.1,10.5 26.6,10.8 25.9,10.8 L24.9,10.8 L24.9,8.6 C26.6,8.6 27.5,8.5 27.5,8.4 C27.7,8.1 27.9,7.7 28.1,7.2 C28.4,6.5 28.8,5.9 29.2,5.4 C29.5,5 30,4.8 30.4,4.8 C30.7,4.8 30.9,4.9 31.1,5.2 C31.3,5.5 31.5,6.1 31.8,7 C32,7.9 32.1,8.5 32.1,9 Z M30.7,8.6 C30.7,8.3 30.6,7.9 30.4,7.5 C30.2,7 29.9,6.8 29.5,6.8 C29.4,6.8 29.3,6.9 29.1,7 C28.9,7.1 28.7,7.2 28.5,7.5 C28.4,7.7 28.3,7.9 28.3,8 C28.3,8 28.3,8.1 28.4,8.2 C28.4,8.3 28.6,8.4 29,8.5 C29.3,8.6 29.6,8.7 29.9,8.7 C30.3,8.8 30.5,8.8 30.6,8.8 C30.7,8.8 30.7,8.7 30.7,8.6 Z M10.4,10.8 L8.8,10.8 L8.8,8.6 L10.4,8.6 L10.4,10.8 Z M5.5,12.2 L7.4,13 L6.7,14.6 L4.9,13.8 L5.5,12.2 Z"></path><path d="M23.5,13.2 C22.7,14.5 21.8,15.1 21,15.1 C20.4,15.1 19.7,14.8 19.1,14.1 C18.5,13.4 18.1,12.7 17.9,12 L18.2,12.3 C18.5,12.4 18.8,12.6 19.2,12.8 C19.6,12.9 20,13 20.5,13 C21.3,13 22,12.6 22.7,12 C23.2,11.4 23.6,11 23.6,10.8 C23.6,10.2 23.1,9.4 22.1,8.4 L22.9,6.4 C23.2,6.7 23.4,7 23.6,7.2 C23.8,7.4 24,7.7 24.1,8 C24.2,8.2 24.3,8.4 24.3,8.6 L24.9,8.6 L24.9,10.8 L24.5,10.9 C24.4,11.5 24,12.3 23.5,13.2 Z"></path><path d="M19.7,10.8 L9.2,10.8 L9.2,8.6 L16.4,8.6 C16.4,8.6 16.2,8.3 15.8,8 C15.5,7.6 15.1,7.2 14.6,6.9 C14.2,6.6 13.7,6.4 13,6.4 C12.8,6.4 12.2,6.6 11.3,6.9 C11.7,6.2 11.9,5.8 12.1,5.7 C12.4,5.2 13,5 13.9,5 C14.8,5 15.8,5.5 16.9,6.6 C17.4,7.1 17.8,7.4 18.2,7.8 C18.6,8.1 19.1,8.4 19.7,8.6 L19.7,10.8 Z"></path><path d="M9.2,10.8 L3,10.8 L3,8.6 L7.2,8.6 C7.3,8.6 7.3,8.5 7.3,8.4 C7.3,8.2 7.2,7.9 7,7.4 C6.7,6.9 6.5,6.6 6.3,6.4 L7.4,4.6 C7.8,5.1 8.1,5.8 8.3,6.7 C8.6,7.6 8.7,8.2 8.7,8.6 L9.2,8.6 L9.2,10.8 Z"></path><path d="M3.4,10.8 L1.3,10.8 C0.9,10.8 0.5,10.7 0.4,10.5 C0.2,10.3 0.1,10 0.1,9.6 L0.1,1.9 L1.4,0.5 L1.4,8.1 C1.4,8.4 1.6,8.6 1.9,8.6 L3.4,8.6 L3.4,10.8 Z"></path></g><g class="convenience-greek"><path d="M0.2,0.6 L1.1,0.6 C1.9,0.6 2.5,0.7 2.9,1.1 C3.4,1.5 3.7,2 4,2.8 L5.5,7.2 L7.9,0.6 L10.2,0.6 L6.5,9.7 L6.5,13 L4.4,13 L4.4,9.8 L1.9,3.3 C1.8,2.8 1.6,2.6 1.4,2.4 C1.2,2.3 0.9,2.2 0.5,2.2 L0.2,2.2 L0.2,0.6 Z M14.5,0.3 C15.6,0.3 16.5,0.6 17.2,1.1 C17.9,1.6 18.3,2.3 18.4,3.2 L16.4,3.2 C16.3,2.8 16.1,2.5 15.9,2.3 C15.6,2 15.1,1.8 14.5,1.8 C13.9,1.8 13.5,1.9 13.3,2.1 C13,2.3 12.8,2.6 12.8,3 C12.8,3.3 13,3.6 13.2,3.8 C13.5,4 13.9,4.1 14.3,4.1 L15.2,4.1 L15.2,5.6 L14.4,5.6 C13.8,5.6 13.3,5.7 13,5.9 C12.7,6.1 12.5,6.4 12.5,6.9 C12.5,7.3 12.7,7.6 13,7.9 C13.4,8.1 13.9,8.3 14.5,8.3 C15.1,8.3 15.6,8.1 15.9,7.9 C16.2,7.6 16.4,7.2 16.5,6.6 L18.5,6.6 C18.4,7.6 18,8.4 17.3,8.9 C16.6,9.5 15.7,9.8 14.5,9.8 C13.3,9.8 12.3,9.5 11.6,9 C10.9,8.4 10.5,7.8 10.5,7 C10.5,5.8 11.1,5.1 12.3,4.8 C11.3,4.3 10.8,3.7 10.8,2.8 C10.8,2.1 11.1,1.5 11.7,1.1 C12.4,0.6 13.3,0.3 14.5,0.3 Z M19.4,0.6 L21.4,0.6 L21.4,7.4 C21.4,7.9 21.6,8.1 22,8.1 C22.4,8.1 22.7,8.1 23,8 L23.2,9.5 C22.6,9.7 22.1,9.8 21.5,9.8 C20.1,9.8 19.4,9 19.4,7.4 L19.4,0.6 Z M28.6,0.3 C29.8,0.3 30.7,0.8 31.3,1.7 L31.4,1.7 L31.8,0.6 L33.2,0.6 L33.2,7.5 C33.2,8 33.4,8.2 33.8,8.2 C33.9,8.2 34,8.2 34.3,8.1 L34.5,9.5 C34,9.7 33.4,9.8 32.9,9.8 C32.5,9.8 32.2,9.6 31.9,9.4 C31.6,9.1 31.4,8.8 31.4,8.4 L31.4,8.3 L31.3,8.3 C30.7,9.3 29.8,9.8 28.6,9.8 C27.2,9.8 26.2,9.3 25.4,8.3 C24.8,7.5 24.4,6.4 24.4,5.1 C24.4,3.7 24.8,2.5 25.5,1.7 C26.3,0.8 27.3,0.3 28.6,0.3 Z M28.9,1.9 C28.1,1.9 27.4,2.2 27,2.9 C26.6,3.4 26.5,4.2 26.5,5.1 C26.5,6 26.6,6.8 27,7.3 C27.4,7.9 28.1,8.2 28.9,8.2 C29.7,8.2 30.2,7.9 30.7,7.3 C31.1,6.8 31.3,6 31.3,5.1 C31.3,4.1 31.1,3.3 30.6,2.8 C30.2,2.2 29.7,1.9 28.9,1.9 Z"></path></g><g class="convenience-chinese"><path d="M2.3,6 C1.9,6.4 1.4,6.9 1,7.3 L0.4,5.7 C2,4.2 3.2,2.4 3.9,0.3 L5.4,1 C5,2 4.5,3 3.8,4 L3.8,13 L2.3,13 L2.3,6 Z M12.7,5.8 C13.4,7.4 14,9.1 14.5,10.9 L13.1,11.5 C12.6,9.5 12,7.8 11.3,6.2 L12.7,5.8 Z M7.2,3.3 C6.8,4.3 6.3,5.2 5.7,6 L4.3,5.2 C5.5,3.7 6.2,2.1 6.7,0.4 L8.2,0.7 C8,1.1 7.9,1.5 7.8,1.9 L14.1,1.9 L14.1,2.8 C13.9,3.7 13.6,4.5 13.3,5.3 L11.7,4.9 C12,4.4 12.3,3.9 12.5,3.3 L7.2,3.3 Z M8.9,12.9 L7,12.9 L6.7,11.6 C7.3,11.6 7.9,11.7 8.4,11.7 C8.8,11.7 8.9,11.5 8.9,11.2 L8.9,4.2 L10.5,4.2 L10.5,11.5 C10.5,12.4 10,12.9 8.9,12.9 Z M6.5,6 L7.8,6.3 C7.4,8.2 6.7,9.8 5.8,11.2 L4.4,10.8 C5.1,9.5 5.8,7.9 6.5,6 Z M18.4,0.3 L19.9,0.4 C19.7,1.3 19.6,2 19.4,2.8 L21.9,2.8 L21.9,3.6 C21.8,5.7 21.4,7.6 20.6,9.2 C21.4,9.7 22,10.2 22.6,10.7 L21.5,11.8 C21,11.4 20.4,10.9 19.8,10.4 C19.1,11.5 18.2,12.4 17.1,13.1 L16,11.9 C17,11.2 17.9,10.4 18.6,9.5 C17.9,9 17.1,8.5 16.3,7.9 C16.8,6.8 17.2,5.6 17.5,4.2 L16.1,4.2 L16.1,2.8 L17.9,2.8 C18,2 18.2,1.1 18.4,0.3 Z M19.3,8.3 C19.9,7.1 20.2,5.7 20.4,4.2 L19.1,4.2 C18.8,5.5 18.4,6.6 18.1,7.5 C18.5,7.8 18.9,8 19.3,8.3 Z M22.2,6 L25.5,6 L25.5,4.5 C26.2,3.9 26.9,3.2 27.6,2.3 L22.6,2.3 L22.6,0.9 L29.4,0.9 L29.4,2.3 C28.7,3.2 27.9,4.1 27,4.9 L27,6 L29.9,6 L29.9,7.4 L27,7.4 L27,11.3 C27,12.3 26.6,12.9 25.7,12.9 L23.4,12.9 L23,11.5 C23.6,11.5 24.3,11.5 25,11.5 C25.3,11.5 25.5,11.3 25.5,10.9 L25.5,7.4 L22.2,7.4 L22.2,6 Z"></path></g></g><g transform="translate(26, 24)" stroke="#333" stroke-width="2" fill="none"><path d="M64,66 L0,66" stroke-linecap="round"></path><g transform="translate(11, 6)" stroke-linejoin="round" fill="#FFF"><path d="M11,41 C11,41 13,41 17,41 L21,46 L25,41 C29,41 31,41 31,41 C37.7,41 41.3,45.3 42,54 L42,60 L0,60 L0,54 C0.7,45.3 4.3,41 11,41 Z"></path><path d="M17,36 C18.3,37.3 19.7,38 21,38 C22.3,38 23.7,37.3 25,36 L25,41 L21,46 L17,41 L17,36 Z"></path><path d="M13,0 L29,0 C32.3,0 35,2.7 35,6 L35,21 C35,23.7 33.3,27 30,31 C26,35.7 23,38 21,38 C19,38 16,35.7 12,31 C8.7,27 7,23.7 7,21 C7,21 7,16 7,6 C7,2.7 9.7,0 13,0 Z"></path><path d="M13,0 L29,0 C32.3,0 35,2.7 35,6 C35,11.3 33.7,15 31,17 C20.3,17 14,15.3 12,12 C12,16.7 10.3,19 7,19 C7,19 7,14.7 7,6 C7,2.7 9.7,0 13,0 Z" fill="#BB9A37" transform="translate(21, 9.5) scale(-1, 1) translate(-21, -9.5) "></path></g><g transform="translate(9, 0)"><g transform="translate(5, 0)"><path d="M36,18 C36,8.1 27.9,0 18,0 C8.1,0 0,8.1 0,18"></path><path d="M36,36 C36,26.1 27.9,18 18,18" transform="translate(27, 27) rotate(-270) translate(-27, -27)"></path></g><rect fill="#FFF" x="1" y="16" width="6" height="14" rx="3"></rect><rect fill="#FFF" transform="translate(23, 35.75) rotate(-90) translate(-23, -35.75)" x="20.25" y="31.75" width="5.5" height="8" rx="2.75"></rect></g></g></svg>