<?xml version="1.0" encoding="utf-8"?>
<!-- Generator: Adobe Illustrator 21.0.0, SVG Export Plug-In . SVG Version: 6.00 Build 0)  -->
<svg version="1.1" id="Слой_1" xmlns="http://www.w3.org/2000/svg" xmlns:xlink="http://www.w3.org/1999/xlink" x="0px" y="0px"
	 viewBox="0 0 512 512" style="enable-background:new 0 0 512 512;" xml:space="preserve">
<style type="text/css">
	.st0{fill:#333333;}
</style>
<g>
	<g>
		<path class="st0" d="M464.5,301.1l36.5-178H141.3l-12.5-59.2L20.4,11L11,29.7l99,47.8l50,238.8h289c0,0,28.5,17.9,17.5,40.5
			c-4.9,7-12.5,15.6-26.1,15.6H152.8V393h287.7c19.8,0,36.5-10.4,45.9-27C504.8,331.6,464.5,301.1,464.5,301.1z M177.8,295.4
			l-32.3-151.6H476l-31.3,151.6H177.8L177.8,295.4z"/>
		<path class="st0" d="M212.2,422.1c-21.9,0-39.6,17.6-39.6,39.4s17.7,39.4,39.6,39.4s39.6-17.6,39.6-39.4S234.1,422.1,212.2,422.1
			L212.2,422.1z M212.2,480.2c-10.4,0-18.8-8.3-18.8-18.7s8.3-18.7,18.8-18.7s18.8,8.3,18.8,18.7S222.6,480.2,212.2,480.2z"/>
		<path class="st0" d="M424.9,422.1c-21.9,0-39.6,17.6-39.6,39.4S403,501,424.9,501s40.7-17.6,39.6-39.4
			C464.5,439.8,446.8,422.1,424.9,422.1z M443.7,461.6c0,10.4-8.3,18.7-18.8,18.7s-18.8-8.3-18.8-18.7s8.3-18.7,18.8-18.7
			S444.7,451.2,443.7,461.6z"/>
	</g>
</g>
</svg>
