<?xml version="1.0" encoding="utf-8"?>
<!-- Generator: Adobe Illustrator 21.0.0, SVG Export Plug-In . SVG Version: 6.00 Build 0)  -->
<svg version="1.1" id="Capa_1" xmlns="http://www.w3.org/2000/svg" xmlns:xlink="http://www.w3.org/1999/xlink" x="0px" y="0px"
	 viewBox="0 0 471.7 471.7" style="enable-background:new 0 0 471.7 471.7;" xml:space="preserve">
<style type="text/css">
	.st0{fill:#FFFFFF;}
</style>
<g>
	<path class="st0" d="M433.6,67c-24.7-24.7-57.4-38.2-92.3-38.2s-67.7,13.6-92.4,38.3L236,80l-13.1-13.1
		c-24.7-24.7-57.6-38.4-92.5-38.4c-34.8,0-67.6,13.6-92.2,38.2C13.5,91.4-0.1,124.2,0,159.1c0,34.9,13.7,67.6,38.4,92.3l187.8,187.8
		c2.6,2.6,6.1,4,9.5,4s6.9-1.3,9.5-3.9l188.2-187.5c24.7-24.7,38.3-57.5,38.3-92.4C471.8,124.5,458.3,91.7,433.6,67z M414.4,232.7
		l-178.7,178L57.4,232.4C37.8,212.8,27,186.8,27,159.1s10.7-53.7,30.3-73.2c19.5-19.5,45.5-30.3,73.1-30.3
		c27.7,0,53.8,10.8,73.4,30.4l22.6,22.6c5.3,5.3,13.8,5.3,19.1,0l22.4-22.4c19.6-19.6,45.7-30.4,73.3-30.4
		c27.6,0,53.6,10.8,73.2,30.3c19.6,19.6,30.3,45.6,30.3,73.3C444.8,187.1,434,213.1,414.4,232.7z"/>
</g>
</svg>
